<svg width="322" height="124" viewBox="0 0 322 124" fill="none" xmlns="http://www.w3.org/2000/svg">
<path d="M0.013751 60.7278C1.01299 26.4931 56.2172 -0.689898 123.317 0.0133429C129.124 0.0742003 134.828 0.34178 140.406 0.802557C83.687 5.505 40.0869 30.3377 39.2001 60.7278C38.2871 91.9998 82.9193 118.338 141.795 123.198C134.619 123.792 127.234 124.066 119.698 123.987C52.5992 123.284 -0.985485 94.9615 0.013751 60.7278Z" fill="url(#paint0_linear_1_49)"/>
<path d="M195.951 70.6129C196.936 70.6023 197.834 69.8498 198.014 68.9205L199.038 63.5979C199.141 62.7469 198.631 62.0929 197.842 62.0079L175.962 61.9915C171.013 61.9915 167.651 60.3908 165.877 57.1876C165.009 55.5415 164.745 53.7516 165.086 51.8176L166.904 42.3992C167.307 40.4653 168.257 38.6753 169.758 37.0293C172.762 33.8261 176.737 32.2245 181.688 32.2245L212.247 32.2206L210.363 42.7644H178.965C178.028 42.8185 177.19 43.5488 177.017 44.4423L175.996 49.7214C175.808 50.701 176.419 51.4535 177.351 51.4535L199.044 51.4699C203.993 51.4699 207.356 53.0705 209.129 56.2738C209.998 57.9198 210.262 59.7098 209.92 61.6437L208.12 71.0244C207.718 72.9583 206.767 74.7483 205.266 76.3944C202.262 79.5976 198.286 81.1982 193.336 81.1982L159.483 81.1905C159.865 79.1996 160.883 77.0638 162.415 75.4177C165.419 72.2155 169.418 70.6139 174.412 70.6139L195.951 70.6129Z" fill="#002D6A"/>
<path d="M74.4921 70.6216H96.074C101.024 70.6216 104.386 72.2223 106.159 75.4255C107.05 77.114 107.272 79.188 106.891 81.1789C106.891 81.1789 72.5866 81.1702 72.4887 81.1383C67.9791 80.9703 64.8874 79.3745 63.2116 76.349C62.3432 74.7029 62.0796 72.9129 62.4198 70.979L67.8802 42.3992C68.2824 40.4653 69.2332 38.6753 70.7335 37.0293C73.7371 33.8261 77.7136 32.2245 82.6643 32.2245L116.313 32.2061C115.929 34.197 114.91 36.271 113.371 37.9595C110.367 41.1628 106.391 42.7634 101.44 42.7634L80.0513 42.7644C79.1006 42.7644 78.2302 43.4667 78.0112 44.3525L73.2951 68.8963C73.1197 69.8218 73.6518 70.5405 74.4921 70.6216Z" fill="#002D6A"/>
<path d="M311.045 44.3283C311.084 43.514 310.502 42.888 309.652 42.888L275.164 42.8339L275.217 42.5548C275.62 40.6209 276.57 38.8309 278.071 37.1848C281.075 33.9816 285.051 32.38 290.001 32.38H310.98C315.929 32.38 319.29 33.9806 321.064 37.1848C321.932 38.8309 322.197 40.6209 321.856 42.5548L316.425 71.1626C316.023 73.0965 315.072 74.8865 313.572 76.5325C310.568 79.7357 306.591 81.3364 301.641 81.3364L280.096 81.3441C280.015 81.3431 279.925 81.3257 279.827 81.2939C275.318 81.1268 272.224 79.53 270.55 76.5045C269.681 74.8584 269.418 73.0685 269.759 71.1346L274.755 44.9717H285.222L280.577 69.2528C280.478 70.1193 281.074 70.8022 281.962 70.8022H304.309C305.201 70.8022 306.065 70.1116 306.294 69.2374L311.045 44.3283Z" fill="#002D6A"/>
<path d="M151.602 44.3283C151.641 43.514 151.058 42.888 150.208 42.888L115.72 42.8339L115.774 42.5548C116.176 40.6209 117.127 38.8309 118.627 37.1848C121.631 33.9816 125.607 32.38 130.558 32.38H151.535C156.486 32.38 159.847 33.9806 161.62 37.1848C162.489 38.8309 162.753 40.6209 162.411 42.5548L156.981 71.1626C156.579 73.0965 155.628 74.8865 154.128 76.5325C151.124 79.7357 147.147 81.3364 142.197 81.3364L120.651 81.3441C120.569 81.3431 120.479 81.3258 120.381 81.2939C115.872 81.1268 112.78 79.53 111.104 76.5045C110.236 74.8584 109.972 73.0685 110.312 71.1346L115.309 44.9717H125.776L121.131 69.2528C121.032 70.1193 121.629 70.8023 122.515 70.8023H144.862C145.755 70.8023 146.618 70.1116 146.846 69.2374L151.602 44.3283Z" fill="#002D6A"/>
<path d="M214.966 32.2235L259.935 32.2245C264.886 32.2245 268.247 33.8251 270.021 37.0293C270.889 38.6753 271.154 40.4644 270.812 42.3992L263.381 81.1905C261.383 81.1905 259.654 80.5848 258.194 79.3725C255.394 76.9923 254.467 73.3351 255.415 68.4008L259.919 44.4433C260.077 43.5536 259.524 42.8243 258.658 42.7644H251.074C250.206 42.8233 249.394 43.5159 249.195 44.3747L242.19 81.1828L231.764 81.205L238.818 44.4423C238.989 43.5526 238.436 42.8243 237.569 42.7644H213.103L214.966 32.2235ZM217.797 44.6867H228.171L219.815 88.2055C218.869 93.1388 216.538 96.797 212.824 99.1763C210.898 100.39 208.935 100.994 206.938 100.994L217.797 44.6867Z" fill="#002D6A"/>
<path d="M254.36 99.1077C254.787 99.2429 255.291 99.3395 255.93 99.3395C257.153 99.3395 257.928 98.7406 258.277 96.8077L259.847 88.5572H262.639L260.992 97.1554C260.37 100.46 258.936 101.793 255.969 101.793C255.155 101.793 254.244 101.658 253.837 101.485L254.36 99.1077Z" fill="#002D6A"/>
<path d="M266.961 98.1997L265.41 101.582H262.442L268.802 88.5581H272.389L273.921 101.582H270.993L270.721 98.1997H266.961ZM270.606 96.0745L270.354 93.2731C270.296 92.5583 270.218 91.515 270.16 90.7219H270.121C269.792 91.514 269.424 92.5187 269.075 93.2731L267.776 96.0745H270.606Z" fill="#002D6A"/>
<path d="M278.726 88.8083C279.559 88.5958 280.878 88.4605 282.138 88.4605C283.301 88.4605 284.659 88.6537 285.609 89.3299C286.48 89.9289 287.024 90.8379 287.024 92.0927C287.024 93.7349 286.268 94.9713 285.241 95.7644C284.174 96.5952 282.662 96.9622 281.071 96.9622C280.607 96.9622 280.218 96.9236 279.928 96.8849L279.035 101.581H276.302L278.726 88.8083ZM280.354 94.6255C280.646 94.6835 280.955 94.7221 281.421 94.7221C283.108 94.7221 284.213 93.6402 284.213 92.3448C284.213 91.089 283.302 90.6833 282.216 90.6833C281.693 90.6833 281.324 90.7219 281.092 90.7799L280.354 94.6255Z" fill="#002D6A"/>
<path d="M290.59 98.1997L289.039 101.582H286.071L292.431 88.5581H296.018L297.549 101.582H294.622L294.35 98.1997H290.59ZM294.234 96.0745L293.982 93.2731C293.924 92.5583 293.846 91.515 293.788 90.7219H293.749C293.42 91.514 293.051 92.5187 292.703 93.2731L291.404 96.0745H294.234Z" fill="#002D6A"/>
<path d="M299.931 101.582L302.413 88.5581H305.69L307.415 93.5243C307.938 95.1867 308.287 96.5391 308.598 97.9688H308.656C308.716 96.6357 308.889 95.2061 309.257 93.2924L310.149 88.5591H312.747L310.286 101.583H307.397L305.574 96.3846C304.993 94.6265 304.644 93.447 304.295 91.8435L304.237 91.8628C304.082 93.1195 303.772 94.9742 303.383 97.0231L302.53 101.584L299.931 101.582Z" fill="#002D6A"/>
<defs>
<linearGradient id="paint0_linear_1_49" x1="242.384" y1="80.9576" x2="202.045" y2="-28.3633" gradientUnits="userSpaceOnUse">
<stop stop-color="#FFF200"/>
<stop offset="0.1464" stop-color="#FFE515"/>
<stop offset="0.4292" stop-color="#FFC94D"/>
<stop offset="0.511" stop-color="#FEC057"/>
</linearGradient>
</defs>
</svg>
